<?xml version="1.0" standalone="no"?><!DOCTYPE svg PUBLIC "-//W3C//DTD SVG 1.1//EN" "http://www.w3.org/Graphics/SVG/1.1/DTD/svg11.dtd"><svg t="1572511350846" class="icon" viewBox="0 0 1024 1024" version="1.1" xmlns="http://www.w3.org/2000/svg" p-id="6174" xmlns:xlink="http://www.w3.org/1999/xlink" width="200" height="200"><defs><style type="text/css"></style></defs><path d="M942.933333 695.466667L512 947.2l-422.4-247.466667c-17.066667-8.533333-38.4-4.266667-51.2 8.533334-4.266667 8.533333-8.533333 17.066667-4.266667 25.6 0 8.533333 8.533333 17.066667 17.066667 21.333333l443.733333 256c4.266667 12.8 8.533333 12.8 17.066667 12.8s12.8 0 21.333333-4.266667l443.733334-256c8.533333-4.266667 17.066667-12.8 17.066666-21.333333s0-17.066667-4.266666-25.6c-12.8-21.333333-29.866667-25.6-46.933334-21.333333z" p-id="6175"></path><path d="M934.4 512L512 759.466667 89.6 512c-17.066667-8.533333-38.4-4.266667-51.2 8.533333-4.266667 8.533333-8.533333 17.066667-4.266667 25.6 0 8.533333 8.533333 17.066667 17.066667 21.333334l443.733333 256c4.266667 4.266667 12.8 4.266667 21.333334 4.266666s12.8 0 21.333333-4.266666l443.733333-256c8.533333-4.266667 17.066667-12.8 17.066667-21.333334s0-17.066667-4.266667-25.6c-21.333333-12.8-42.666667-17.066667-59.733333-8.533333z" p-id="6176"></path><path d="M989.866667 268.8L546.133333 12.8c-8.533333-8.533333-21.333333-12.8-34.133333-12.8-12.8 0-25.6 4.266667-38.4 8.533333L29.866667 264.533333C12.8 277.333333 0 298.666667 0 320s12.8 42.666667 34.133333 55.466667l443.733334 256c12.8 8.533333 25.6 8.533333 38.4 8.533333s25.6-4.266667 38.4-8.533333l443.733333-256c12.8-8.533333 25.6-29.866667 25.6-55.466667 0-21.333333-12.8-42.666667-34.133333-51.2zM938.666667 320l-426.666667 247.466667L85.333333 320l426.666667-247.466667 426.666667 247.466667z" p-id="6177"></path></svg>