<?xml version="1.0" standalone="no"?><!DOCTYPE svg PUBLIC "-//W3C//DTD SVG 1.1//EN" "http://www.w3.org/Graphics/SVG/1.1/DTD/svg11.dtd"><svg t="1558406931487" class="icon" style="" viewBox="0 0 1024 1024" version="1.1" xmlns="http://www.w3.org/2000/svg" p-id="1955" xmlns:xlink="http://www.w3.org/1999/xlink" width="200" height="200"><defs><style type="text/css"></style></defs><path d="M512 512m-512 0a512 512 0 1 0 1024 0 512 512 0 1 0-1024 0Z" fill="#FAA237" p-id="1956"></path><path d="M467.583 657.382c2.134-1.898 5.034-4.802 8.672-8.687l7.997-7.897a108.278 108.278 0 0 1 32.132-21.014 102.248 102.248 0 0 1 37.511-6.253c4.193-0.051 7.591-3.436 7.642-7.629a7.412 7.412 0 0 0-2.169-5.045 7.345 7.345 0 0 0-5.384-2.263 118.164 118.164 0 0 0-38.041 5.896 111.975 111.975 0 0 0-30.994 16.063 199.4 199.4 0 0 0-28.134 26.063 7.831 7.831 0 0 0-2.262 5.379c0.051 4.196 3.442 7.604 7.642 7.651a7.917 7.917 0 0 0 5.388-2.264z" fill="#FFFFFF" p-id="1957"></path><path d="M287.397 655.913v66.695c0 45.146 30.822 73.365 76.846 73.365h298.375c41.578 0 75.709-21.617 76.845-73.365V562.05l75.801-27.094a43.422 43.422 0 0 0 15.771-33.477 43.376 43.376 0 0 0-15.771-33.478l-79.021-65.037c0.186-2.06 0.186-4.11 0-6.17v-90.31c-1.691-21.025-19.232-37.216-40.336-37.216-21.086 0-38.632 16.19-40.326 37.216v30.921L551.379 252.39c-21.271-19.348-53.76-19.348-75.035 0l-118.355 95.52c38.414 48.084 52.787 111.063 39.03 171.033a201.798 201.798 0 0 1-109.622 136.97z m121.735 35.253a14.295 14.295 0 0 1 3.74-8.687 42.929 42.929 0 0 1 8.168-7.813 87.934 87.934 0 0 0 8.156-6.688c2.493-2.31 3.736-4.23 3.736-5.737a31.014 31.014 0 0 0-1.65-4.519c-0.769-1.698-1.395-3.479-1.914-5.276a72.59 72.59 0 0 1-1.036-12.431 67.888 67.888 0 0 1 5.208-26.046 71.291 71.291 0 0 1 14.24-22.063 103.861 103.861 0 0 1 20.409-16.585 112.656 112.656 0 0 1 23.614-11.637 78.044 78.044 0 0 1 17.363-3.032c7.18-0.581 14.334-0.932 21.455-1.052 7.12-0.108 14.239-0.352 21.356-0.691a97.3 97.3 0 0 0 19.53-2.861 30.579 30.579 0 0 0 13.552-6.772l3.564-3.565 3.555-3.381c2.381-2.258 3.441-3.068 3.222-2.432-0.233 0.631 1.209 0 4.332-1.908 3.134-1.916 4.87-2.089 5.219-0.521a10.502 10.502 0 0 1 8.676 5.467 39.905 39.905 0 0 1 5.65 13.375c1.271 5.271 2.22 10.22 2.86 14.848 0.579 3.802 0.899 7.626 0.969 11.463h-0.274c-0.024 7.762-0.84 15.51-2.431 23.098a98.403 98.403 0 0 1-22.055 45.768 136.038 136.038 0 0 1-42.813 32.031 115.012 115.012 0 0 1-52.097 12.957 105.676 105.676 0 0 1-34.737-5.648c-1.22-0.408-4.71-2.085-10.498-5.036a34.957 34.957 0 0 0-11.477-4.43c-1.271 0-2.824 1.27-4.688 3.813a85.563 85.563 0 0 0-5.381 8.687 41.352 41.352 0 0 1-6.244 8.688 10.492 10.492 0 0 1-7.219 3.822 13.041 13.041 0 0 1-6.07-1.309 11.282 11.282 0 0 1-3.739-2.858 54.127 54.127 0 0 1-3.208-5.036l-0.7-1.31-0.349-1.91a5.862 5.862 0 0 1 0-1.124 8.067 8.067 0 0 1 0.006-1.659z" fill="#FFFFFF" p-id="1958"></path><path d="M402.458 473.557a200.868 200.868 0 0 0-44.21-125.91l-142.06 114.458a43.4 43.4 0 0 0-15.708 33.41 43.436 43.436 0 0 0 15.708 33.441l71.554 26.06v100.642c70.11-33.555 114.727-104.381 114.716-182.101z" fill="#FFFFFF" opacity=".4" p-id="1959"></path></svg>